<?xml version="1.0" encoding="UTF-8" standalone="no"?>
<!-- Created with Inkscape (http://www.inkscape.org/) -->

<svg
   xmlns:dc="http://purl.org/dc/elements/1.1/"
   xmlns:cc="http://creativecommons.org/ns#"
   xmlns:rdf="http://www.w3.org/1999/02/22-rdf-syntax-ns#"
   xmlns:svg="http://www.w3.org/2000/svg"
   xmlns="http://www.w3.org/2000/svg"
   xmlns:sodipodi="http://sodipodi.sourceforge.net/DTD/sodipodi-0.dtd"
   xmlns:inkscape="http://www.inkscape.org/namespaces/inkscape"
   width="508mm"
   height="583mm"
   viewBox="0 0 1799.9986 2065.746"
   id="svg2"
   version="1.1"
   inkscape:version="0.91 r13725"
   sodipodi:docname=" final expert.svg">
  <defs
     id="defs4" />
  <sodipodi:namedview
     id="base"
     pagecolor="#ffffff"
     bordercolor="#666666"
     borderopacity="1.0"
     inkscape:pageopacity="0.0"
     inkscape:pageshadow="2"
     inkscape:zoom="0.5"
     inkscape:cx="626.91846"
     inkscape:cy="1458.1565"
     inkscape:document-units="px"
     inkscape:current-layer="g6172"
     showgrid="false"
     inkscape:window-width="1280"
     inkscape:window-height="751"
     inkscape:window-x="0"
     inkscape:window-y="0"
     inkscape:window-maximized="1"
     showguides="true" />
  <metadata
     id="metadata7">
    <rdf:RDF>
      <cc:Work
         rdf:about="">
        <dc:format>image/svg+xml</dc:format>
        <dc:type
           rdf:resource="http://purl.org/dc/dcmitype/StillImage" />
        <dc:title></dc:title>
      </cc:Work>
    </rdf:RDF>
  </metadata>
  <g
     inkscape:label="Layer 1"
     inkscape:groupmode="layer"
     id="layer1"
     transform="translate(0,1013.3853)">
    <text
       xml:space="preserve"
       style="font-style:normal;font-weight:normal;font-size:40px;line-height:125%;font-family:sans-serif;letter-spacing:0px;word-spacing:0px;fill:#000000;fill-opacity:1;stroke:none;stroke-width:1px;stroke-linecap:butt;stroke-linejoin:miter;stroke-opacity:1"
       x="1196.5488"
       y="-127.50964"
       id="text4281"
       sodipodi:linespacing="125%"><tspan
         sodipodi:role="line"
         id="tspan4283"
         x="1196.5488"
         y="-127.50964" /></text>
    <path
       style="fill:none;fill-rule:evenodd;stroke:#000000;stroke-width:1px;stroke-linecap:butt;stroke-linejoin:miter;stroke-opacity:1"
       d="m -1046.4591,-686.17704 c 0,125.07479 0,116.73647 0,116.73647 l 70.87574,79.21403 0,120.90563 -16.67664,-37.52244 0,4.16916"
       id="path5348"
       inkscape:connector-curvature="0" />
    <g
       id="g6172"
       transform="translate(107.99992,-37.999973)">
      <g
         style="fill:#000000"
         id="g6014"
         transform="matrix(1.1756148,0,0,1.0455064,-36.377547,-28.644949)">
        <g
           style="fill:#000000"
           id="g6016">
          <g
             style="fill:#000000"
             id="g6018">
            <g
               style="fill:#000000"
               id="g6020">
              <ellipse
                 style="fill:#000000;fill-opacity:1;stroke-width:200.3999939;stroke-miterlimit:4;stroke-dasharray:none"
                 id="ellipse6022"
                 cx="673.31921"
                 cy="-313.03656"
                 rx="469.0304"
                 ry="514.89111" />
            </g>
          </g>
        </g>
      </g>
      <g
         transform="translate(782,0)"
         id="g6100">
        <g
           id="g4202"
           transform="matrix(1.1244444,0,0,1,-781.92434,-44.890095)">
          <g
             id="g4184">
            <g
               id="g4180">
              <g
                 id="g4177">
                <ellipse
                   style="fill:#00ff00;fill-opacity:1;stroke-width:200.3999939;stroke-miterlimit:4;stroke-dasharray:none"
                   id="path5344"
                   cx="673.31921"
                   cy="-313.03656"
                   rx="469.0304"
                   ry="514.89111" />
              </g>
            </g>
          </g>
        </g>
        <g
           id="g6088">
          <g
             id="g5322"
             transform="matrix(0.63043818,-0.53766723,0.6151912,0.75032202,320.64744,-1185.5146)"
             style="stroke-width:11.21963596;stroke-miterlimit:4;stroke-dasharray:none">
            <path
               inkscape:connector-curvature="0"
               id="path5324"
               d="m -963.0759,-35.78814 -75.0449,62.53744 0,104.2289 62.53742,54.1991 -4.16916,266.8262 0,141.7515 -45.86076,75.0449 0,83.3831 41.6916,54.1991 83.3832,0"
               style="fill:none;fill-rule:evenodd;stroke:#000000;stroke-width:11.21963596;stroke-linecap:butt;stroke-linejoin:miter;stroke-miterlimit:4;stroke-dasharray:none;stroke-opacity:1" />
            <path
               style="fill:none;fill-rule:evenodd;stroke:#000000;stroke-width:11.21963596;stroke-linecap:butt;stroke-linejoin:miter;stroke-miterlimit:4;stroke-dasharray:none;stroke-opacity:1"
               d="m -868.34498,-35.826787 58.60316,62.543178 0,104.238469 -48.83597,54.20407 3.25573,266.85069 0,141.7645 35.81304,75.05179 0,83.39075 -32.55731,54.20408 -65.11461,0"
               id="path5326"
               inkscape:connector-curvature="0" />
            <path
               sodipodi:nodetypes="cccccccc"
               inkscape:connector-curvature="0"
               id="path5328"
               d="m -967.24506,-27.44982 -33.35324,70.87572 0,62.5374 29.18408,41.6916 100.05984,4.1691 33.35327,-41.6916 0,-70.8757 -20.8458,-75.044856"
               style="fill:none;fill-rule:evenodd;stroke:#000000;stroke-width:11.21963596;stroke-linecap:butt;stroke-linejoin:miter;stroke-miterlimit:4;stroke-dasharray:none;stroke-opacity:1" />
            <path
               sodipodi:nodetypes="ccccccccc"
               inkscape:connector-curvature="0"
               id="path5330"
               d="m -950.56843,627.10824 50.02996,-2e-5 45.86073,37.52249 0,62.53743 -41.69159,50.02984 -66.70657,-10e-6 -37.5224,-54.19902 0,-50.02997 z"
               style="fill:none;fill-rule:evenodd;stroke:#000000;stroke-width:11.21963596;stroke-linecap:butt;stroke-linejoin:miter;stroke-miterlimit:4;stroke-dasharray:none;stroke-opacity:1" />
          </g>
          <g
             style="stroke-width:11.21963596;stroke-miterlimit:4;stroke-dasharray:none"
             transform="matrix(0.53800989,0.63001929,-0.73903847,0.62859683,759.04411,-53.074041)"
             id="g4271">
            <path
               style="fill:none;fill-rule:evenodd;stroke:#000000;stroke-width:11.21963596;stroke-linecap:butt;stroke-linejoin:miter;stroke-miterlimit:4;stroke-dasharray:none;stroke-opacity:1"
               d="m -963.0759,-35.78814 -75.0449,62.53744 0,104.2289 62.53742,54.1991 -4.16916,266.8262 0,141.7515 -45.86076,75.0449 0,83.3831 41.6916,54.1991 83.3832,0"
               id="path4248"
               inkscape:connector-curvature="0" />
            <path
               inkscape:connector-curvature="0"
               id="path4250"
               d="m -868.34498,-35.826787 58.60316,62.543178 0,104.238469 -48.83597,54.20407 3.25573,266.85069 0,141.7645 35.81304,75.05179 0,83.39075 -32.55731,54.20408 -65.11461,0"
               style="fill:none;fill-rule:evenodd;stroke:#000000;stroke-width:11.21963596;stroke-linecap:butt;stroke-linejoin:miter;stroke-miterlimit:4;stroke-dasharray:none;stroke-opacity:1" />
            <path
               style="fill:none;fill-rule:evenodd;stroke:#000000;stroke-width:11.21963596;stroke-linecap:butt;stroke-linejoin:miter;stroke-miterlimit:4;stroke-dasharray:none;stroke-opacity:1"
               d="m -967.24506,-27.44982 -33.35324,70.87572 0,62.5374 29.18408,41.6916 100.05984,4.1691 33.35327,-41.6916 0,-70.8757 -20.8458,-75.044856"
               id="path4252"
               inkscape:connector-curvature="0"
               sodipodi:nodetypes="cccccccc" />
            <path
               style="fill:none;fill-rule:evenodd;stroke:#000000;stroke-width:11.21963596;stroke-linecap:butt;stroke-linejoin:miter;stroke-miterlimit:4;stroke-dasharray:none;stroke-opacity:1"
               d="m -950.56843,627.10824 50.02996,-2e-5 45.86073,37.52249 0,62.53743 -41.69159,50.02984 -66.70657,-10e-6 -37.5224,-54.19902 0,-50.02997 z"
               id="path4269"
               inkscape:connector-curvature="0"
               sodipodi:nodetypes="ccccccccc" />
          </g>
        </g>
      </g>
    </g>
    <rect
       style="opacity:1;fill:#f9f9f9;fill-opacity:1;stroke:none;stroke-width:10;stroke-miterlimit:4;stroke-dasharray:none"
       id="rect5860"
       width="600.46179"
       height="126.0865"
       x="1631.2437"
       y="838.56189"
       transform="matrix(0.99990807,-0.01355909,0.01528598,0.99988316,0,0)" />
    <text
       xml:space="preserve"
       style="font-style:normal;font-weight:normal;font-size:40px;line-height:125%;font-family:sans-serif;letter-spacing:0px;word-spacing:0px;fill:#000000;fill-opacity:1;stroke:none;stroke-width:1px;stroke-linecap:butt;stroke-linejoin:miter;stroke-opacity:1"
       x="692"
       y="320.36255"
       id="text5910"
       sodipodi:linespacing="125%"><tspan
         sodipodi:role="line"
         id="tspan5912"
         x="692"
         y="320.36255" /></text>
    <text
       xml:space="preserve"
       style="font-style:normal;font-weight:normal;font-size:128.40010071px;line-height:125%;font-family:sans-serif;letter-spacing:0px;word-spacing:0px;fill:#000000;fill-opacity:1;stroke:none;stroke-width:1px;stroke-linecap:butt;stroke-linejoin:miter;stroke-opacity:1"
       x="2587.3232"
       y="354.6228"
       id="text5914"
       sodipodi:linespacing="125%"
       transform="scale(0.80367608,1.2442824)"><tspan
         sodipodi:role="line"
         id="tspan5916"
         x="2587.3232"
         y="354.6228">24/7</tspan></text>
    <g
       id="g6196"
       transform="translate(263.9998,-423.9997)">
      <text
         inkscape:transform-center-y="11.999991"
         inkscape:transform-center-x="-287.99978"
         transform="scale(0.93920869,1.0647261)"
         sodipodi:linespacing="125%"
         id="text5868"
         y="417.14883"
         x="299.36426"
         style="font-style:normal;font-variant:normal;font-weight:normal;font-stretch:normal;font-size:93.96743774px;line-height:125%;font-family:'Arial Black';-inkscape-font-specification:'Arial Black, Normal';text-align:start;letter-spacing:0px;word-spacing:0px;writing-mode:lr-tb;text-anchor:start;fill:#000000;fill-opacity:1;stroke:none;stroke-width:0.09999993;stroke-linecap:butt;stroke-linejoin:miter;stroke-miterlimit:4;stroke-dasharray:none;stroke-opacity:1"
         xml:space="preserve"><tspan
           y="417.14883"
           x="299.36426"
           id="tspan5870"
           sodipodi:role="line">MY E     PERT </tspan></text>
      <g
         style="stroke:#000000;stroke-width:34.34028244;stroke-miterlimit:4;stroke-dasharray:none;stroke-opacity:1"
         transform="matrix(0.16876831,-0.04522138,0.04522136,0.16876826,627.39189,466.89293)"
         id="g6056">
        <g
           id="g6058"
           transform="matrix(0.63043818,-0.53766723,0.6151912,0.75032202,323.07181,-1138.2287)"
           style="stroke:#000000;stroke-width:38.30274582;stroke-miterlimit:4;stroke-dasharray:none;stroke-opacity:1">
          <path
             inkscape:connector-curvature="0"
             id="path6060"
             d="m -963.0759,-35.78814 -75.0449,62.53744 0,104.2289 62.53742,54.1991 -4.16916,266.8262 0,141.7515 -45.86076,75.0449 0,83.3831 41.6916,54.1991 83.3832,0"
             style="fill:none;fill-rule:evenodd;stroke:#000000;stroke-width:38.30274582;stroke-linecap:butt;stroke-linejoin:miter;stroke-miterlimit:4;stroke-dasharray:none;stroke-opacity:1" />
          <path
             style="fill:none;fill-rule:evenodd;stroke:#000000;stroke-width:38.30274582;stroke-linecap:butt;stroke-linejoin:miter;stroke-miterlimit:4;stroke-dasharray:none;stroke-opacity:1"
             d="m -868.34498,-35.826787 58.60316,62.543178 0,104.238469 -48.83597,54.20407 3.25573,266.85069 0,141.7645 35.81304,75.05179 0,83.39075 -32.55731,54.20408 -65.11461,0"
             id="path6062"
             inkscape:connector-curvature="0" />
          <path
             sodipodi:nodetypes="cccccccc"
             inkscape:connector-curvature="0"
             id="path6064"
             d="m -967.24506,-27.44982 -33.35324,70.87572 0,62.5374 29.18408,41.6916 100.05984,4.1691 33.35327,-41.6916 0,-70.8757 -20.8458,-75.044856"
             style="fill:none;fill-rule:evenodd;stroke:#000000;stroke-width:38.30274582;stroke-linecap:butt;stroke-linejoin:miter;stroke-miterlimit:4;stroke-dasharray:none;stroke-opacity:1" />
          <path
             sodipodi:nodetypes="ccccccccc"
             inkscape:connector-curvature="0"
             id="path6066"
             d="m -950.56843,627.10824 50.02996,-2e-5 45.86073,37.52249 0,62.53743 -41.69159,50.02984 -66.70657,-10e-6 -37.5224,-54.19902 0,-50.02997 z"
             style="fill:none;fill-rule:evenodd;stroke:#000000;stroke-width:38.30274582;stroke-linecap:butt;stroke-linejoin:miter;stroke-miterlimit:4;stroke-dasharray:none;stroke-opacity:1" />
        </g>
        <g
           style="stroke:#000000;stroke-width:38.30274582;stroke-miterlimit:4;stroke-dasharray:none;stroke-opacity:1"
           transform="matrix(0.53800989,0.63001929,-0.73903847,0.62859683,735.70812,-44.38996)"
           id="g6068">
          <path
             style="fill:none;fill-rule:evenodd;stroke:#000000;stroke-width:38.30274582;stroke-linecap:butt;stroke-linejoin:miter;stroke-miterlimit:4;stroke-dasharray:none;stroke-opacity:1"
             d="m -963.0759,-35.78814 -75.0449,62.53744 0,104.2289 62.53742,54.1991 -4.16916,266.8262 0,141.7515 -45.86076,75.0449 0,83.3831 41.6916,54.1991 83.3832,0"
             id="path6070"
             inkscape:connector-curvature="0" />
          <path
             inkscape:connector-curvature="0"
             id="path6072"
             d="m -868.34498,-35.826787 58.60316,62.543178 0,104.238469 -48.83597,54.20407 3.25573,266.85069 0,141.7645 35.81304,75.05179 0,83.39075 -32.55731,54.20408 -65.11461,0"
             style="fill:none;fill-rule:evenodd;stroke:#000000;stroke-width:38.30274582;stroke-linecap:butt;stroke-linejoin:miter;stroke-miterlimit:4;stroke-dasharray:none;stroke-opacity:1" />
          <path
             style="fill:none;fill-rule:evenodd;stroke:#000000;stroke-width:38.30274582;stroke-linecap:butt;stroke-linejoin:miter;stroke-miterlimit:4;stroke-dasharray:none;stroke-opacity:1"
             d="m -967.24506,-27.44982 -33.35324,70.87572 0,62.5374 29.18408,41.6916 100.05984,4.1691 33.35327,-41.6916 0,-70.8757 -20.8458,-75.044856"
             id="path6074"
             inkscape:connector-curvature="0"
             sodipodi:nodetypes="cccccccc" />
          <path
             style="fill:none;fill-rule:evenodd;stroke:#000000;stroke-width:38.30274582;stroke-linecap:butt;stroke-linejoin:miter;stroke-miterlimit:4;stroke-dasharray:none;stroke-opacity:1"
             d="m -950.56843,627.10824 50.02996,-2e-5 45.86073,37.52249 0,62.53743 -41.69159,50.02984 -66.70657,-10e-6 -37.5224,-54.19902 0,-50.02997 z"
             id="path6076"
             inkscape:connector-curvature="0"
             sodipodi:nodetypes="ccccccccc" />
        </g>
      </g>
    </g>
    <text
       xml:space="preserve"
       style="font-style:normal;font-weight:normal;font-size:25px;line-height:125%;font-family:sans-serif;letter-spacing:0px;word-spacing:0px;fill:#000000;fill-opacity:1;stroke:none;stroke-width:1px;stroke-linecap:butt;stroke-linejoin:miter;stroke-opacity:1"
       x="540"
       y="404.36255"
       id="text6146"
       sodipodi:linespacing="125%"><tspan
         sodipodi:role="line"
         id="tspan6148"
         x="540"
         y="404.36255" /></text>
  </g>
</svg>
